# Blender v2.91.0 OBJ File: ''
# www.blender.org
mtllib gnome_lowpoly.mtl
o gnome
v -0.040454 1.990771 0.369575
v 0.302511 1.944118 0.292104
v 0.302411 1.769975 0.454230
v 0.111573 1.813425 0.476055
v 0.278911 2.151145 0.290601
v 0.414875 1.999017 -0.013892
v -0.023736 1.886880 0.549941
v -0.027371 1.709627 0.435515
v 0.334714 1.606203 0.349521
v 0.007058 1.127010 0.547754
v 0.488688 1.518434 0.135269
v 0.392227 1.803250 -0.302083
v 0.205689 1.206486 0.402128
v 0.362381 1.549387 -0.124067
v 0.174006 1.531329 -0.430207
v 0.108534 1.789501 -0.439174
v 0.005727 3.218578 -0.654830
v 0.595296 1.409254 -0.195958
v -0.045203 1.125398 -0.636418
v 0.505743 1.044235 0.175303
v -0.083454 1.534548 -0.469893
v 0.845911 0.999155 0.208313
v 0.872974 0.865599 -0.129201
v 0.468134 1.146242 -0.370419
v 0.642993 0.726205 0.042036
v 0.336450 0.644088 0.457669
v 0.556798 0.631452 -0.222418
v -0.286167 0.644700 -0.591585
v 0.295253 0.661583 -0.550659
v -0.048713 0.636672 0.558531
v 0.233696 0.288679 0.188201
v 0.016620 0.460065 -0.527522
v 0.344406 0.290706 -0.244838
v 0.059190 0.215669 0.106456
v -0.065628 0.283992 0.109528
v -0.009113 0.315702 -0.204731
v 0.223220 0.094157 0.406768
v 0.060051 0.010460 -0.306328
v 0.343774 0.008967 -0.296295
v 0.788920 0.739031 0.342129
v -0.291465 0.280412 0.135627
v -0.323397 1.898747 0.295159
v -0.317037 2.139707 0.244437
v -0.464417 1.859845 -0.046699
v -0.316910 1.606705 0.380791
v -0.477138 1.455453 0.156925
v -0.351356 1.814117 -0.304651
v -0.364800 1.561420 -0.125541
v -0.585758 1.051036 0.214530
v -0.386041 0.649277 0.436713
v -0.565188 0.978238 -0.320398
v -0.597319 1.340713 -0.270992
v -0.912135 0.946333 0.106366
v -0.577175 0.703119 0.053989
v -0.315989 0.301512 -0.296817
v -0.347135 0.010120 -0.274633
v -0.307440 0.097888 0.395271
v -0.037583 0.085791 0.306361
v -0.042867 0.008906 -0.287616
v -0.748077 0.702030 0.093776
v -0.785952 0.717587 0.362835
vn 0.2357 0.0363 0.9711
vn 0.2204 0.0550 0.9739
vn 0.2254 0.0185 0.9741
vn 0.2321 0.6631 0.7116
vn 0.2323 0.6627 0.7120
vn 0.2329 0.6627 0.7117
vn 0.9273 0.1034 0.3596
vn 0.9287 0.1096 0.3544
vn 0.9260 0.1081 0.3616
vn 0.1611 -0.5369 0.8281
vn 0.1566 -0.5364 0.8293
vn 0.1602 -0.5384 0.8273
vn -0.0105 -0.3856 0.9226
vn 0.0174 -0.3892 0.9210
vn 0.0347 -0.3788 0.9248
vn 0.7412 -0.2546 0.6212
vn 0.7447 -0.2355 0.6245
vn 0.7306 -0.2469 0.6366
vn 0.9833 0.0978 -0.1537
vn 0.9799 0.1202 -0.1589
vn 0.9852 0.1018 -0.1375
vn 0.9543 0.2069 -0.2155
vn 0.9542 0.2080 -0.2151
vn 0.5135 0.1510 -0.8447
vn 0.5128 0.1518 -0.8450
vn 0.5143 0.1524 -0.8440
vn 0.4811 0.8668 -0.1309
vn 0.4812 0.8666 -0.1321
vn 0.1526 0.0046 -0.9883
vn 0.1524 0.0043 -0.9883
vn 0.1522 0.0046 -0.9883
vn 0.3780 0.3793 0.8446
vn 0.3784 0.3791 0.8444
vn -0.1588 -0.8901 0.4272
vn -0.1602 -0.8903 0.4262
vn -0.1564 -0.8918 0.4245
vn 0.6092 0.2133 -0.7638
vn 0.6057 0.2153 -0.7660
vn 0.6046 0.2168 -0.7665
vn -0.0826 -0.7143 -0.6949
vn -0.0817 -0.7171 -0.6922
vn -0.0848 -0.7146 -0.6943
vn 0.6618 0.2241 0.7154
vn 0.6632 0.2230 0.7145
vn 0.6619 0.2262 0.7147
vn 0.9349 -0.1794 0.3062
vn 0.0734 -0.1290 -0.9889
vn 0.0735 -0.1295 -0.9889
vn 0.2084 -0.6284 0.7494
vn 0.2078 -0.6298 0.7484
vn 0.2091 -0.6285 0.7492
vn 0.5396 -0.2838 -0.7927
vn 0.5374 -0.2841 -0.7940
vn 0.5383 -0.2820 -0.7941
vn -0.4782 -0.8610 -0.1730
vn -0.4755 -0.8625 -0.1732
vn -0.4761 -0.8630 -0.1693
vn 0.4947 -0.7365 -0.4614
vn 0.4944 -0.7366 -0.4615
vn 0.4940 -0.7366 -0.4619
vn -0.9575 -0.2592 0.1268
vn -0.9574 -0.2594 0.1271
vn 0.0361 0.1798 -0.9830
vn 0.0357 0.1795 -0.9831
vn -0.8277 -0.5032 0.2484
vn -0.8274 -0.5026 0.2507
vn -0.8287 -0.5029 0.2457
vn -0.0323 0.4549 0.8900
vn -0.0238 0.4610 0.8871
vn -0.0276 0.4679 0.8833
vn -0.0094 -0.9929 0.1187
vn -0.0790 0.5563 0.8272
vn -0.0748 0.5564 0.8275
vn -0.0751 0.5572 0.8270
vn -0.9255 0.1097 0.3626
vn -0.9250 0.0935 0.3682
vn -0.9207 0.1063 0.3756
vn -0.3843 0.7858 0.4847
vn -0.3836 0.7838 0.4883
vn -0.3825 0.7848 0.4877
vn -0.6281 0.2084 0.7497
vn -0.6307 0.2046 0.7486
vn -0.6278 0.2053 0.7508
vn -0.9132 -0.1798 -0.3656
vn -0.8866 -0.2485 -0.3900
vn -0.9148 -0.2326 -0.3303
vn -0.8922 -0.1757 -0.4161
vn -0.8873 -0.1816 -0.4240
vn -0.8876 -0.2191 -0.4051
vn -0.7375 -0.3638 -0.5689
vn -0.7328 -0.3656 -0.5740
vn -0.7341 -0.3673 -0.5711
vn -0.2850 -0.1637 -0.9444
vn -0.2854 -0.1621 -0.9446
vn -0.2840 -0.1628 -0.9449
vn -0.9002 0.1249 -0.4172
vn -0.9004 0.1250 -0.4168
vn -0.9003 0.1255 -0.4167
vn -0.9225 0.3693 0.1120
vn -0.4988 0.2156 0.8395
vn -0.4339 0.1537 0.8878
vn -0.4338 0.1445 0.8894
vn -0.4985 0.2520 0.8294
vn -0.4993 0.2485 0.8301
vn -0.4966 0.2563 0.8293
vn -0.5344 0.0687 -0.8425
vn -0.5292 0.0714 -0.8455
vn -0.5312 0.0660 -0.8447
vn -0.4608 0.7726 -0.4368
vn -0.4605 0.7729 -0.4366
vn -0.4603 0.7731 -0.4365
vn -0.6886 0.7251 -0.0014
vn -0.6880 0.7257 -0.0014
vn -0.7616 0.6467 0.0405
vn -0.7753 0.0174 -0.6314
vn -0.7768 0.0166 -0.6296
vn -0.7778 0.0185 -0.6283
vn -0.8857 -0.2125 0.4127
vn -0.8857 -0.2120 0.4131
vn -0.8863 -0.2117 0.4120
vn -0.8301 -0.5572 0.0199
vn 0.1596 -0.9058 -0.3924
vn -0.2221 -0.6241 -0.7491
vn -0.9820 0.1775 0.0643
vn -0.9820 0.1778 0.0638
vn -0.6847 -0.4295 -0.5888
vn -0.1323 -0.7970 -0.5893
vn -0.1322 -0.7967 -0.5897
vn 0.0424 -0.9725 0.2291
vn 0.0620 0.7657 0.6402
vn 0.0541 0.8158 0.5757
vn -0.0049 -0.9919 0.1272
vn 0.0016 -0.9915 0.1298
vn 0.0049 -0.9913 0.1316
vn 0.2198 -0.3958 0.8917
vn 0.2064 -0.4051 0.8907
vn 0.2037 -0.4191 0.8848
vn -0.8283 -0.5540 -0.0837
vn -0.8295 -0.5521 -0.0840
vn -0.8292 -0.5525 -0.0848
vn 0.8756 -0.4589 0.1506
vn 0.8744 -0.4615 0.1501
vn 0.8764 -0.4584 0.1477
vn 0.2521 0.6491 0.7177
vn 0.2497 0.6469 0.7206
vn 0.2523 0.6464 0.7201
vn 0.5883 0.7233 0.3615
vn 0.5903 0.7201 0.3647
vn 0.5916 0.7223 0.3581
vn 0.9856 0.1150 0.1242
vn 0.9856 0.1152 0.1239
vn 0.9855 0.1153 0.1242
vn 0.0468 -0.5347 0.8437
vn 0.0532 -0.5304 0.8461
vn 0.0444 -0.5248 0.8500
vn 0.2781 0.1977 0.9400
vn 0.2803 0.1961 0.9397
vn 0.2807 0.1992 0.9389
vn 0.8921 0.2505 0.3760
vn 0.8966 0.2514 0.3646
vn 0.8887 0.2647 0.3743
vn 0.8326 0.1670 0.5281
vn 0.8322 0.1701 0.5278
vn 0.8309 0.1700 0.5298
vn 0.5144 0.2530 0.8194
vn 0.4863 0.2514 0.8368
vn 0.4759 0.2190 0.8518
vn 0.8010 -0.3989 -0.4464
vn 0.8113 -0.3897 -0.4357
vn 0.8032 -0.4090 -0.4331
vn 0.8301 0.1970 -0.5216
vn 0.8465 0.1329 -0.5156
vn 0.8109 0.1943 -0.5519
vn 0.4055 -0.5659 -0.7178
vn 0.3799 -0.5625 -0.7344
vn 0.3827 -0.5510 -0.7416
vn 0.5136 0.6389 0.5727
vn 0.8926 0.4047 0.1988
vn 0.3539 0.6689 0.6537
vn 0.4368 -0.1034 -0.8936
vn 0.4363 -0.1033 -0.8938
vn 0.4187 0.8538 -0.3095
vn 0.4178 0.8546 -0.3085
vn 0.4212 0.8541 -0.3051
vn 0.4483 0.1667 -0.8782
vn 0.4479 0.1661 -0.8785
vn 0.4185 0.3517 -0.8374
vn 0.4192 0.3546 -0.8358
vn 0.4217 0.3527 -0.8353
vn 0.8720 0.4870 -0.0488
vn 0.8449 0.5346 0.0202
vn 0.8173 0.5715 0.0733
vn 0.8909 0.4423 -0.1036
vn -0.9185 -0.3951 -0.0140
vn -0.9180 -0.3965 -0.0004
vn -0.9200 -0.3917 -0.0107
vn 0.9861 0.1625 -0.0357
vn 0.9876 0.1531 -0.0342
vn 0.9866 0.1583 -0.0394
vn 0.2535 -0.0076 0.9673
vn 0.5246 0.2036 0.8267
vn 0.7789 -0.0452 -0.6256
vn 0.7798 -0.0449 -0.6244
vn 0.7792 -0.0465 -0.6250
vn 0.8087 -0.5222 0.2708
vn 0.8090 -0.5212 0.2718
vn 0.8085 -0.5219 0.2721
vn 0.8787 -0.4222 0.2227
vn 0.8782 -0.4223 0.2243
vn 0.8784 -0.4232 0.2220
vn -0.0869 0.2968 -0.9510
vn -0.0865 0.2961 -0.9512
vn -0.0875 0.2965 -0.9510
vn -0.2191 -0.4378 0.8720
vn -0.2232 -0.4440 0.8678
vn -0.2153 -0.4452 0.8692
vn -0.1104 -0.9038 -0.4134
vn -0.1108 -0.9039 -0.4131
vn -0.0544 -0.7480 0.6614
vn -0.0544 -0.7484 0.6611
vn 0.9851 -0.0330 0.1690
vn 0.9839 -0.0308 0.1759
vn 0.9844 -0.0338 0.1729
vn -0.7692 -0.4977 0.4007
vn -0.7740 -0.4959 0.3936
vn -0.7680 -0.5034 0.3959
vn -0.5277 0.6463 0.5513
vn -0.5287 0.6471 0.5493
vn -0.5289 0.6452 0.5513
vn 0.9438 0.2208 0.2458
vn 0.9455 0.2200 0.2401
vn 0.9448 0.2245 0.2388
vn 0.9800 -0.1454 0.1357
vn 0.9801 -0.1448 0.1359
vn 0.9800 -0.1449 0.1362
vn 0.4173 -0.8926 -0.1709
vn 0.4214 -0.8918 -0.1644
vn 0.4169 -0.8942 -0.1630
vn -0.3058 0.1955 0.9318
vn -0.3042 0.2099 0.9292
vn -0.3174 0.2017 0.9266
vn -0.9244 0.0926 0.3699
vn -0.9256 0.0869 0.3685
vn -0.9235 0.0870 0.3737
vn 0.0351 -0.5418 0.8398
vn 0.0336 -0.5417 0.8399
vn 0.0329 -0.5445 0.8381
vn -0.2411 0.1703 0.9554
vn -0.2410 0.1698 0.9556
vn -0.8233 0.0467 0.5657
vn -0.7072 -0.2402 0.6649
vn -0.7972 -0.0531 0.6014
vn -0.8593 0.2497 0.4464
vn -0.0710 0.6511 0.7557
vn -0.4373 0.3033 -0.8466
vn -0.4415 0.3020 -0.8449
vn -0.4424 0.3038 -0.8438
vn 0.1453 0.3846 -0.9116
vn -0.2531 0.3024 -0.9189
vn -0.2522 0.3006 -0.9198
vn -0.2533 0.3011 -0.9193
vn -0.3714 0.2280 0.9000
vn -0.3718 0.2274 0.9000
vn -0.8388 -0.4256 -0.3396
vn -0.8387 -0.4251 -0.3403
vn -0.8387 -0.4260 -0.3394
vn -0.5496 0.1998 -0.8112
vn -0.5506 0.1988 -0.8108
vn -0.5496 0.2003 -0.8111
vn -0.3372 0.0597 0.9395
vn -0.2797 -0.6491 0.7074
vn -0.2795 -0.6498 0.7069
vn 0.0748 -0.2152 -0.9737
vn 0.0745 -0.2152 -0.9737
vn -0.8093 -0.4819 0.3358
vn -0.8091 -0.4819 0.3363
vn -0.8095 -0.4809 0.3367
vn -0.8911 -0.2484 -0.3797
vn -0.8913 -0.2483 -0.3793
vn 0.0155 -0.9999 -0.0006
vn 0.2715 0.2227 -0.9363
vn 0.2704 0.2228 -0.9366
vn 0.2701 0.2242 -0.9364
vn -0.0428 -0.0713 -0.9965
vn -0.0569 -0.0652 -0.9962
vn 0.9938 -0.1108 0.0055
vn -0.0024 -0.9917 0.1282
vn -0.9930 0.1095 0.0445
vn 0.9231 0.3281 0.2004
vn 0.9242 0.3251 0.2005
vn 0.9233 0.3290 0.1980
vn 0.2508 0.7029 0.6656
vn 0.2510 0.6989 0.6697
vn 0.2525 0.6998 0.6682
vn -0.4174 0.5670 0.7101
vn -0.4177 0.5659 0.7108
vn -0.4164 0.5666 0.7110
usemtl _13184_PudgyGnome_v1initialShadingGroup
s 1
f 1//1 2//2 5//3
f 3//4 2//5 4//6
f 5//7 2//8 6//9
f 8//10 4//11 7//12
f 3//13 4//14 8//15
f 9//16 10//17 11//18
f 6//19 11//20 12//21
f 17//22 6//22 12//23
f 15//24 18//25 19//26
f 14//27 11//28 18//27
f 21//29 16//30 15//31
f 22//32 11//33 13//33
f 20//34 22//35 13//36
f 24//37 18//38 23//39
f 25//40 24//41 23//42
f 20//43 13//44 26//45
f 26//46 27//46 20//46
f 28//47 19//48 29//47
f 31//49 26//50 30//51
f 32//52 27//53 33//54
f 34//55 35//56 36//57
f 32//58 29//59 27//60
f 34//61 36//62 38//61
f 38//63 33//64 39//64
f 34//65 38//66 37//67
f 22//68 20//69 40//70
f 38//71 39//71 37//71
f 5//72 43//73 1//74
f 42//75 43//76 44//77
f 7//78 1//79 42//80
f 45//81 7//82 42//83
f 48//84 44//85 47//86
f 48//87 46//88 44//89
f 21//90 48//91 47//92
f 17//93 16//94 47//95
f 44//96 17//97 47//98
f 43//99 17//99 44//99
f 49//100 50//101 10//102
f 10//103 46//104 49//105
f 19//106 51//107 52//108
f 48//109 21//110 52//111
f 48//112 52//113 46//113
f 46//114 52//114 53//114
f 53//115 52//116 51//117
f 49//118 54//119 50//120
f 54//121 55//121 41//121
f 55//122 32//122 36//122
f 28//123 32//123 55//123
f 41//124 55//124 57//125
f 51//126 60//126 53//126
f 51//127 54//128 60//128
f 35//129 41//130 57//131
f 57//132 56//133 59//134
f 60//135 54//136 49//137
f 53//138 60//139 61//140
f 60//141 49//142 61//143
f 4//144 2//145 1//146
f 4//147 1//148 7//149
f 2//150 3//151 9//152
f 3//153 8//154 9//155
f 9//156 8//157 10//158
f 6//159 2//160 11//161
f 2//162 9//163 11//164
f 10//165 13//166 11//167
f 11//168 14//169 12//170
f 15//171 16//172 14//173
f 16//174 12//175 14//176
f 5//177 6//178 17//179
f 17//180 12//181 16//180
f 14//182 18//183 15//184
f 29//185 19//185 24//186
f 18//187 24//188 19//189
f 22//190 18//191 11//192
f 22//190 23//193 18//191
f 20//194 24//195 25//196
f 27//197 24//198 20//199
f 30//200 26//200 10//200
f 26//201 13//201 10//201
f 27//202 29//203 24//204
f 26//205 33//206 27//207
f 31//208 33//209 26//210
f 38//211 36//212 33//213
f 34//214 31//215 35//216
f 36//217 32//218 33//218
f 41//219 31//219 30//220
f 37//221 39//222 33//223
f 25//224 40//225 20//226
f 34//227 37//228 31//229
f 33//230 31//231 37//232
f 22//233 40//234 23//235
f 40//236 25//237 23//238
f 43//239 42//240 1//241
f 45//242 42//243 44//244
f 45//245 8//246 7//247
f 10//248 8//249 45//249
f 46//250 10//251 45//252
f 46//250 45//252 44//253
f 5//177 17//179 43//254
f 52//255 21//256 19//257
f 19//258 21//258 15//258
f 21//259 47//260 16//261
f 53//262 49//262 46//263
f 28//264 54//265 51//266
f 51//267 19//268 28//269
f 10//102 50//101 30//270
f 41//271 30//271 50//272
f 28//273 29//274 32//273
f 50//275 54//276 41//277
f 54//278 28//279 55//279
f 35//129 31//280 41//130
f 55//281 36//282 59//283
f 56//284 55//284 59//285
f 59//286 36//286 58//286
f 57//132 59//134 58//287
f 57//288 55//288 56//288
f 36//289 35//290 58//291
f 58//292 35//293 57//294
f 61//295 49//296 53//297
