# Blender v2.90.1 OBJ File: ''
# www.blender.org
mtllib monkey.mtl
o Suzanne
v 0.546875 0.054688 0.578125
v -0.546875 0.054688 0.578125
v -0.348823 -0.039891 0.626154
v 0.348823 -0.039891 0.626154
v 0.243436 0.183277 0.809088
v 0.156250 0.054688 0.648438
v -0.156250 0.054688 0.648438
v -0.066086 0.241075 0.663968
v 0.065623 0.241473 0.664332
v 0.296268 0.364523 0.805121
v 0.156250 0.437500 0.648438
v -0.156250 0.437500 0.648438
v 0.351562 0.515625 0.617188
v -0.351562 0.515625 0.617188
v -0.293751 0.363527 0.805224
v -0.466618 0.309081 0.768140
v 0.546875 0.437500 0.578125
v -0.546875 0.437500 0.578125
v 0.633369 0.242106 0.566534
v -0.633263 0.242030 0.566494
v 0.467091 0.308394 0.768123
v -0.243136 0.183168 0.809604
v 0.411605 0.129821 0.794655
v -0.411605 0.129821 0.794655
v 0.000000 -0.187500 0.796875
v 0.000000 0.898438 -0.546875
v 0.161855 0.425610 -0.886247
v 0.000000 -0.382812 -0.351562
v -0.223717 -0.193371 0.529801
v 0.223095 -0.182572 0.537520
v -0.356728 -0.927976 0.573527
v 0.356416 -0.923432 0.574956
v 0.561106 -0.083400 0.569124
v 0.801472 0.401529 0.631966
v 0.253604 0.768544 0.746560
v -0.253433 0.768836 0.748109
v -0.000467 0.418818 0.744456
v 0.611977 0.172832 0.665211
v -0.261609 0.481956 0.761877
v 0.306832 0.476701 0.752781
v 0.000000 -0.195312 0.750000
v 0.000000 -0.140625 0.742188
v 0.085959 -0.130101 0.804936
v -0.590524 -0.058461 0.582604
v -0.816663 0.389995 0.639416
v -0.248244 0.648821 0.854577
v 0.252976 0.656178 0.850654
v -0.006031 0.325982 0.829469
v -0.091305 -0.118257 0.792388
v 0.017284 -0.984477 0.591458
v -0.102173 0.130465 0.742287
v 0.134283 -0.242667 0.751561
v -0.003510 -0.332462 0.762465
v -0.128254 -0.242695 0.759088
v 0.096341 -0.797565 0.717271
v -0.098573 -0.730395 0.728907
v 0.093144 -0.792467 0.647164
v -0.065943 -0.865276 0.683015
v -0.412973 0.388532 0.752534
v -0.548006 0.301844 0.681778
v -0.543159 0.212734 0.683209
v -0.460760 0.120128 0.707842
v -0.374026 0.085633 0.727129
v 0.198150 0.304100 0.760369
v -0.196071 0.294624 0.761091
v 0.293952 0.398592 0.778324
v 0.222894 0.132351 0.756619
v 0.414528 0.069190 0.697299
v 0.546875 0.210938 0.671875
v 0.549449 0.303430 0.675520
v 0.411560 0.390627 0.752042
v -0.280962 0.396572 0.770937
v -0.227140 0.134763 0.760223
v -0.002492 0.430919 0.632235
v -0.261462 0.709033 0.606235
v 0.260303 0.708855 0.607407
v -0.457458 0.528564 0.474708
v -0.711654 0.400774 0.307327
v -0.803836 0.161472 0.420019
v -0.436074 -0.104066 0.453043
v 0.785346 0.119346 0.417886
v 0.001752 0.976525 0.190772
v -0.011619 -0.075160 -0.779360
v -0.795840 0.041023 0.158112
v -0.831749 0.350337 -0.387405
v -0.490828 0.417757 -0.691108
v 0.814251 0.064879 0.177529
v 0.533910 0.047078 -0.538381
v -0.738105 -0.086049 -0.332369
v -0.214052 -0.410230 0.341908
v -0.322199 -0.914282 0.396656
v 0.321192 -0.910612 0.408725
v 0.000282 -0.495311 0.307091
v -0.027229 -0.950352 0.402103
v 0.199753 -0.398234 0.297475
v 0.347695 -0.237654 -0.431147
v 0.453125 0.867188 -0.382812
v -0.453125 0.867188 -0.382812
v -0.476077 0.899132 0.128827
v 0.465608 0.900982 0.152219
v 0.460237 0.527298 0.472638
v 0.717463 0.403459 0.312642
v -0.781498 0.576058 0.095848
v 0.781498 0.576058 0.095848
v 0.770823 0.623203 -0.342437
v -0.774117 0.618565 -0.345925
v -0.412197 -0.155198 -0.470120
v 0.838238 0.304138 -0.194035
v 0.539567 -0.142898 -0.158480
v -0.637334 -0.131573 -0.129306
v -1.048997 -0.073373 -0.319236
v -1.315084 0.072190 -0.487198
v -1.363250 0.313430 -0.444733
v -1.144385 0.493109 -0.352791
v 1.207696 0.489413 -0.396355
v 1.211712 0.314025 -0.444590
v 1.179577 -0.017760 -0.396365
v 0.799217 -0.111136 -0.120197
v 1.005483 0.430324 -0.271337
v 0.851778 -0.000411 -0.293091
v -1.147014 0.048217 -0.437880
v -1.210577 0.316817 -0.444218
v -0.983413 0.301681 -0.354455
v -0.795922 0.102855 -0.308274
v 0.790779 0.104465 -0.308961
v -0.730791 -0.029646 -0.154644
v 0.709322 -0.014957 -0.168345
v -0.851212 0.363598 -0.191879
v 0.985268 0.297194 -0.359371
v -0.849688 -0.002268 -0.295795
v 1.142695 0.041631 -0.458032
v -1.223191 0.489490 -0.551496
v 1.227002 0.480829 -0.552827
v 1.363280 0.310916 -0.445376
v 1.225087 -0.009861 -0.547001
v -1.039062 -0.085938 -0.492188
v 0.789062 -0.125000 -0.328125
v 0.833846 0.352238 -0.391235
vt 0.900073 0.600696
vt 0.865294 0.596428
vt 0.920246 0.524366
vt 0.863045 0.814502
vt 0.897948 0.811769
vt 0.914742 0.888926
vt 0.798506 0.569552
vt 0.853018 0.521562
vt 0.795130 0.838386
vt 0.847458 0.888748
vt 0.860051 0.630865
vt 0.859266 0.779911
vt 0.842259 0.702752
vt 0.791018 0.645443
vt 0.897193 0.634433
vt 0.896148 0.777610
vt 0.844750 0.707253
vt 0.921180 0.713713
vt 0.968213 0.770220
vt 0.968392 0.645333
vt 0.965038 0.841671
vt 0.968392 0.573812
vt 0.611847 0.159877
vt 0.660792 0.225157
vt 0.535391 0.189605
vt 0.377394 0.233168
vt 0.423632 0.158139
vt 0.500449 0.191834
vt 0.696892 0.314498
vt 0.655324 0.271895
vt 0.718689 0.256613
vt 0.434535 0.380359
vt 0.424353 0.400567
vt 0.340548 0.318412
vt 0.523776 0.386711
vt 0.609776 0.376532
vt 0.619594 0.396083
vt 0.522030 0.346077
vt 0.610356 0.339422
vt 0.579590 0.310661
vt 0.438956 0.343010
vt 0.650757 0.299854
vt 0.389878 0.303980
vt 0.581249 0.274621
vt 0.491024 0.260727
vt 0.526337 0.080127
vt 0.521557 0.052615
vt 0.551123 0.062478
vt 0.513037 0.072664
vt 0.487210 0.061933
vt 0.545922 0.166925
vt 0.508300 0.085721
vt 0.493431 0.169151
vt 0.519132 0.185382
vt 0.519841 0.200843
vt 0.517577 0.190607
vt 0.517872 0.153908
vt 0.523492 0.078282
vt 0.426270 0.263573
vt 0.456830 0.275187
vt 0.619747 0.263868
vt 0.408797 0.269807
vt 0.391580 0.287347
vt 0.413540 0.324355
vt 0.603696 0.327778
vt 0.439501 0.330982
vt 0.647785 0.283486
vt 0.628962 0.425427
vt 0.524536 0.433700
vt 0.415857 0.430491
vt 0.350292 0.396229
vt 0.692106 0.388274
vt 0.262597 0.316840
vt 0.766492 0.308454
vt 0.643405 0.019704
vt 0.558356 0.053724
vt 0.539877 0.021327
vt 0.394896 0.019215
vt 0.511783 0.021558
vt 0.399481 0.082116
vt 0.479748 0.053805
vt 0.645964 0.082889
vt 0.355825 0.196456
vt 0.823446 0.091731
vt 0.805584 0.010786
vt 0.923249 0.061717
vt 0.232648 0.003484
vt 0.927090 0.385070
vt 0.915360 0.259804
vt 0.999856 0.254640
vt 0.098965 0.266968
vt 0.087610 0.412904
vt 0.000144 0.259113
vt 0.114059 0.179686
vt 0.011829 0.155367
vt 0.963770 0.173241
vt 0.861899 0.236042
vt 0.836684 0.203906
vt 0.871997 0.327847
vt 0.819308 0.278589
vt 0.208596 0.287729
vt 0.147220 0.341845
vt 0.159892 0.240546
vt 0.786595 0.369001
vt 0.825956 0.455045
vt 0.249207 0.387964
vt 0.763149 0.431455
vt 0.279331 0.457858
vt 0.217614 0.477521
vt 0.314147 0.266573
vt 0.259721 0.208047
vt 0.772331 0.210087
vt 0.819338 0.213963
vt 0.203277 0.217482
vt 0.781780 0.141935
vt 0.245969 0.151002
vt 0.200481 0.102779
vt 0.854987 0.141773
vt 0.196622 0.155241
vt 0.107997 0.046395
vt 0.197818 0.864697
vt 0.137396 0.774299
vt 0.195111 0.800886
vt 0.560548 0.806371
vt 0.538067 0.730335
vt 0.618903 0.781339
vt 0.183755 0.725412
vt 0.225920 0.744218
vt 0.356280 0.692786
vt 0.253991 0.699219
vt 0.357746 0.622754
vt 0.442893 0.725137
vt 0.436457 0.668277
vt 0.491468 0.817831
vt 0.591638 0.871934
vt 0.451245 0.878689
vt 0.271952 0.812762
vt 0.796877 0.178399
vt 0.230248 0.179152
vt 0.393069 0.690183
vt 0.391039 0.611891
vt 0.343481 0.856604
vt 0.332923 0.748250
vt 0.425874 0.753736
vt 0.529470 0.751629
vt 0.316181 0.720208
vt 0.484068 0.628776
vt 0.568363 0.712314
vt 0.273470 0.604646
vt 0.216123 0.678120
vt 0.661965 0.735554
vt 0.707492 0.759884
vt 0.742304 0.597357
vt 0.044323 0.542309
vt 0.106750 0.582589
vt 0.095807 0.725654
vt 0.658213 0.585676
vt 0.498072 0.552315
vt 0.791018 0.762238
vt 0.918898 0.699697
vt 0.461186 0.311213
vt 0.626943 0.320654
vt 0.734010 0.317916
vt 0.176788 0.196179
vt 0.392564 0.823320
vt 0.049526 0.748824
vt 0.834578 0.206879
vn 0.7426 -0.1332 0.6563
vn -0.7425 -0.1307 0.6570
vn 0.4662 -0.7042 0.5356
vn -0.4662 -0.7042 0.5356
vn -0.1498 -0.6682 0.7288
vn 0.1472 -0.6689 0.7286
vn -0.6561 -0.3741 0.6555
vn -0.5826 0.1871 0.7909
vn 0.5878 0.1841 0.7878
vn 0.6212 0.3409 0.7056
vn 0.2249 0.7902 0.5701
vn 0.3609 0.6721 0.6466
vn -0.3947 0.6753 0.6231
vn 0.7806 0.3135 0.5408
vn 0.0846 -0.0029 0.9964
vn -0.0882 -0.0006 0.9961
vn 0.2335 0.0715 0.9697
vn -0.2310 0.0726 0.9702
vn 0.2418 -0.9212 0.3048
vn -0.2685 -0.8818 0.3877
vn 0.6705 -0.4724 0.5721
vn -0.5040 0.5609 0.6568
vn -0.6870 0.4959 0.5312
vn 0.6841 0.4699 0.5579
vn 0.3026 -0.1492 0.9414
vn -0.4562 -0.4039 0.7929
vn -0.1137 -0.4755 0.8723
vn 0.2170 -0.1277 0.9678
vn -0.2258 -0.2337 0.9457
vn 0.4490 -0.0703 0.8908
vn -0.0443 0.2032 0.9781
vn -0.0439 -0.0281 0.9986
vn 0.1454 -0.5941 0.7912
vn -0.1353 -0.6612 0.7379
vn 0.4461 -0.0856 0.8909
vn -0.4666 -0.0829 0.8806
vn 0.0374 -0.0642 0.9972
vn -1.0000 0.0000 0.0000
vn 0.4777 0.6670 0.5717
vn 0.2757 -0.3127 0.9090
vn -0.1324 -0.1472 0.9802
vn -0.5593 -0.2111 0.8016
vn 0.5085 0.1913 0.8396
vn -0.3282 -0.9431 -0.0536
vn 0.3153 -0.2364 0.9191
vn 0.0769 -0.7050 0.7050
vn 0.3430 -0.3888 0.8551
vn -0.3377 -0.3635 0.8682
vn -0.5006 -0.2229 0.8365
vn -0.5226 0.8513 -0.0456
vn -0.4886 0.3429 0.8023
vn -0.1449 0.1368 0.9799
vn 0.0777 -0.0414 0.9961
vn 0.1327 0.0536 0.9897
vn -0.7199 0.6885 0.0872
vn 0.7277 0.6832 0.0605
vn -0.5263 0.7938 -0.3048
vn 0.4660 0.8081 -0.3602
vn -0.3961 0.9132 -0.0956
vn 0.9583 0.1359 -0.2513
vn 0.0422 -0.2067 -0.9775
vn -0.2289 -0.1857 -0.9556
vn 0.1146 -0.9883 -0.1005
vn -0.1190 -0.9879 -0.0997
vn 0.9638 0.1872 -0.1898
vn -0.9665 0.1885 -0.1741
vn 0.0504 -0.2005 -0.9784
vn -0.3558 -0.9295 -0.0970
vn 0.1993 -0.7930 -0.5757
vn 0.4265 -0.8915 -0.1525
vn -0.3862 -0.9093 -0.1551
vn 0.1062 0.9888 -0.1049
vn -0.1060 0.9889 -0.1044
vn -0.2527 0.5056 -0.8249
vn 0.5896 0.2740 -0.7598
vn 0.7208 0.6909 0.0568
vn -0.7284 0.6831 0.0536
vn 0.6277 0.5080 0.5898
vn -0.6018 0.5058 0.6180
vn 0.1362 0.6225 0.7707
vn -0.2009 0.6630 0.7212
vn -0.3631 0.2635 -0.8937
vn 0.3649 0.2561 -0.8951
vn -0.9440 0.2878 -0.1612
vn 0.9230 0.1177 0.3663
vn -0.9295 0.0671 0.3626
vn 0.9786 0.2060 -0.0017
vn -0.9550 0.2964 0.0126
vn 0.9748 0.2209 0.0322
vn 0.5292 -0.8449 -0.0788
vn -0.0219 -0.9983 0.0547
vn 0.3735 -0.8940 0.2475
vn 0.6534 -0.7543 0.0646
vn -0.4819 -0.5859 0.6515
vn 0.5715 -0.1751 -0.8017
vn -0.4273 -0.3758 -0.8223
vn -0.5208 -0.3685 -0.7700
vn 0.0073 -0.4625 0.8866
vn 0.0081 0.1431 0.9897
vn -0.2872 -0.0454 0.9568
vn -0.4328 -0.1772 0.8839
vn 0.2222 0.7890 0.5728
vn 0.5545 -0.5160 0.6530
vn -0.3668 -0.3161 0.8750
vn 0.6019 -0.7985 0.0017
vn -0.7370 -0.6759 -0.0006
vn -0.1753 0.3048 0.9361
vn 0.9056 -0.3809 -0.1868
vn 0.4334 0.6933 0.5758
vn -0.9473 -0.2745 0.1649
vn -0.5731 -0.4323 0.6962
vn -0.9448 -0.3015 -0.1284
vn 0.6389 -0.4895 0.5935
vn 0.0679 0.1878 0.9799
vn 0.4962 -0.0293 0.8677
vn -0.4334 -0.0168 0.9010
vn 0.3578 -0.1362 0.9238
vn 0.2697 -0.9624 0.0310
vn -0.0377 -0.9968 0.0703
vn 0.7604 0.6468 0.0583
vn -0.3315 0.9389 -0.0924
vn 0.3457 0.9379 -0.0292
vn -0.3775 -0.0095 -0.9260
vn 0.4690 -0.0107 -0.8831
vn -0.0932 -0.1315 -0.9869
vn 0.6100 -0.0118 -0.7923
vn -0.6180 0.0150 -0.7860
vn 0.5612 -0.1600 -0.8120
vn 0.1124 -0.9918 0.0606
vn 0.7534 -0.3119 0.5789
vn -0.7536 -0.3115 0.5789
vn -0.2558 -0.6822 0.6849
vn 0.2566 -0.6836 0.6833
vn 0.6591 -0.3732 0.6529
vn -0.6158 0.3422 0.7097
vn -0.2251 0.7906 0.5694
vn 0.3946 0.6745 0.6240
vn -0.3515 0.6721 0.6517
vn -0.7806 0.3128 0.5411
vn 0.8893 0.1812 0.4199
vn -0.8922 0.1860 0.4115
vn 0.7240 -0.3636 0.5862
vn -0.7865 -0.4502 0.4229
vn 0.5194 0.5792 0.6283
vn -0.6918 0.5098 0.5114
vn 0.6927 0.4952 0.5244
vn 0.3795 -0.3526 0.8554
vn 0.1499 -0.4383 0.8862
vn -0.1941 -0.1240 0.9731
vn 0.1691 0.0032 0.9856
vn -0.8600 -0.0386 0.5089
vn -0.3646 0.1685 0.9158
vn -0.3193 -0.1157 0.9406
vn 0.2321 -0.4891 0.8408
vn -0.2864 -0.2692 0.9195
vn 0.0689 -0.5770 0.8138
vn -0.2576 -0.3665 0.8940
vn -0.0745 -0.0661 0.9950
vn 0.1557 -0.1199 0.9805
vn -0.4939 0.6602 0.5659
vn 0.0726 0.0312 -0.9969
vn -0.0842 -0.2342 0.9685
vn 0.8890 0.1824 0.4201
vn -0.8991 0.1577 0.4083
vn -0.3988 0.9131 0.0846
vn 0.1409 -0.0328 0.9895
vn 0.0374 -0.6214 0.7826
vn 0.0919 -0.7706 0.6306
vn 0.6146 0.7455 0.2579
vn 0.1876 0.0615 0.9803
vn 0.2274 0.2686 0.9360
vn -0.7759 0.5654 -0.2799
vn 0.7763 0.5640 -0.2817
vn 0.5109 0.7987 -0.3180
vn 0.3831 0.9188 -0.0952
vn -0.4737 0.8060 -0.3549
vn -0.9314 0.2235 -0.2873
vn -0.5261 -0.7728 -0.3551
vn -0.1411 -0.9796 -0.1434
vn 0.1631 -0.9636 -0.2120
vn 0.0050 -0.1090 -0.9940
vn 0.9581 0.1604 -0.2373
vn -0.9591 0.1597 -0.2337
vn 0.2766 -0.7521 -0.5982
vn 0.4372 -0.5530 -0.7092
vn -0.2731 -0.7845 -0.5568
vn 0.3561 -0.9251 -0.1316
vn -0.4384 -0.8825 -0.1702
vn -0.5722 -0.7516 0.3282
vn 0.4424 -0.3311 -0.8335
vn -0.2837 -0.1052 -0.9531
vn 0.1551 0.9857 -0.0659
vn -0.1509 0.9862 -0.0683
vn 0.3041 0.6220 -0.7215
vn -0.3169 0.5545 -0.7695
vn -0.6710 0.2520 -0.6973
vn 0.4785 0.5041 -0.7190
vn -0.4849 0.5220 -0.7017
vn 0.6129 0.7875 -0.0640
vn -0.6160 0.7840 -0.0766
vn 0.6179 0.5067 0.6012
vn -0.6371 0.5086 0.5792
vn 0.1666 0.6404 0.7497
vn -0.1327 0.6241 0.7700
vn 0.9658 0.2526 0.0589
vn 0.9898 0.0821 0.1167
vn -0.9784 0.0496 0.2005
vn -0.9679 0.2252 -0.1116
vn -0.8074 -0.5898 0.0118
vn -0.5125 -0.8310 0.2164
vn 0.4814 -0.6748 0.5594
vn -0.6221 -0.2280 -0.7490
vn -0.2448 -0.9649 -0.0948
vn 0.7376 -0.5994 -0.3107
vn -0.0004 -0.2652 0.9642
vn 0.0005 -0.1733 0.9849
vn -0.1326 0.6354 0.7607
vn 0.2297 0.7660 0.6004
vn -0.4640 0.3981 0.7913
vn -0.7688 0.1643 0.6180
vn 0.3575 -0.2400 0.9025
vn 0.5674 0.4357 0.6987
vn -0.6565 0.4109 0.6327
vn 0.9086 -0.3485 0.2303
vn 0.6425 -0.4912 0.5882
vn -0.7268 -0.6139 0.3080
vn 0.1275 0.9882 0.0843
vn -0.0769 0.1562 0.9847
vn -0.3705 -0.0658 0.9265
vn 0.2727 -0.9608 0.0507
vn -0.0482 -0.9795 -0.1957
vn -0.4963 -0.8675 0.0345
vn 0.8626 -0.4468 0.2372
vn -0.6753 0.6920 0.2552
vn 0.4890 0.8468 -0.2094
vn -0.3486 0.9311 -0.1073
vn -0.4306 -0.0785 -0.8991
vn 0.3961 0.0322 -0.9176
vn -0.5239 0.8248 0.2128
vn -0.2315 -0.8715 -0.4324
usemtl None
s off
f 21/1/1 23/2/1 19/3/1
f 24/4/2 16/5/2 20/6/2
f 23/2/3 4/7/3 1/8/3
f 3/9/4 24/4/4 2/10/4
f 23/2/5 5/11/5 4/7/5
f 22/12/6 24/4/6 3/9/6
f 9/13/7 6/14/7 5/11/7
f 5/11/8 10/15/8 9/13/8
f 15/16/9 22/12/9 8/17/9
f 15/16/10 8/17/10 12/18/10
f 15/16/11 12/18/11 14/19/11
f 21/1/12 13/20/12 10/15/12
f 16/5/13 14/19/13 18/21/13
f 19/3/14 17/22/14 21/1/14
f 23/2/15 10/15/15 5/11/15
f 22/12/16 15/16/16 24/4/16
f 23/2/17 21/1/17 10/15/17
f 15/16/18 16/5/18 24/4/18
f 30/23/19 33/24/19 43/25/19
f 44/26/20 29/27/20 49/28/20
f 34/29/21 38/30/21 81/31/21
f 46/32/22 36/33/22 45/34/22
f 37/35/23 47/36/23 35/37/23
f 37/35/24 46/32/24 48/38/24
f 40/39/25 48/38/25 64/40/25
f 39/41/26 48/38/26 46/32/26
f 45/34/27 39/41/27 46/32/27
f 34/29/28 40/39/28 70/42/28
f 44/26/29 60/43/29 45/34/29
f 43/25/30 33/24/30 67/44/30
f 67/44/31 51/45/31 43/25/31
f 64/40/32 51/45/32 67/44/32
f 55/46/33 50/47/33 32/48/33
f 50/47/34 58/49/34 31/50/34
f 52/51/35 55/46/35 32/48/35
f 56/52/36 54/53/36 31/50/36
f 52/51/37 56/52/37 55/46/37
f 25/54/38 42/55/38 41/56/38
f 25/54/39 42/55/39 49/28/39
f 43/25/40 53/57/40 52/51/40
f 53/57/41 43/25/41 54/53/41
f 42/55/42 43/25/42 51/45/42
f 49/28/43 42/55/43 51/45/43
f 55/46/44 56/52/44 57/58/44
f 58/49/45 57/58/45 56/52/45
f 63/59/46 51/45/46 73/60/46
f 33/24/47 38/30/47 68/61/47
f 62/62/48 44/26/48 63/59/48
f 61/63/49 44/26/49 62/62/49
f 39/41/50 60/43/50 59/64/50
f 64/40/51 66/65/51 40/39/51
f 39/41/52 59/64/52 72/66/52
f 70/42/53 69/67/53 38/30/53
f 38/30/54 69/67/54 68/61/54
f 37/35/55 76/68/55 74/69/55
f 75/70/56 37/35/56 74/69/56
f 36/33/57 75/70/57 77/71/57
f 34/29/58 101/72/58 35/37/58
f 45/34/59 77/71/59 78/73/59
f 81/31/60 102/74/60 34/29/60
f 93/75/61 92/76/61 94/77/61
f 93/78/62 94/79/62 90/80/62
f 32/48/63 94/79/63 92/76/63
f 94/79/64 31/50/64 91/81/64
f 32/48/65 92/76/65 95/82/65
f 91/81/66 31/50/66 90/80/66
f 92/76/67 93/75/67 95/82/67
f 29/27/68 44/26/68 80/83/68
f 96/84/69 28/85/69 83/86/69
f 28/85/70 95/82/70 93/75/70
f 90/80/71 28/87/71 93/78/71
f 82/88/72 97/89/72 26/90/72
f 98/91/73 82/92/73 26/93/73
f 86/94/74 26/93/74 27/95/74
f 27/96/75 105/97/75 138/98/75
f 100/99/76 104/100/76 105/97/76
f 103/101/77 99/102/77 106/103/77
f 100/99/78 102/74/78 104/100/78
f 78/73/79 99/102/79 103/101/79
f 101/104/80 82/88/80 74/105/80
f 77/106/81 82/92/81 99/102/81
f 74/105/82 76/107/82 101/104/82
f 75/108/83 74/109/83 77/106/83
f 79/110/84 78/73/84 84/111/84
f 87/112/85 104/100/85 102/74/85
f 103/101/86 84/111/86 78/73/86
f 108/113/87 105/97/87 104/100/87
f 106/103/88 128/114/88 103/101/88
f 105/97/89 108/113/89 138/98/89
f 96/84/90 109/115/90 95/82/90
f 80/83/91 110/116/91 107/117/91
f 81/31/92 109/115/92 87/112/92
f 81/31/93 95/82/93 109/115/93
f 80/83/94 90/80/94 29/27/94
f 88/118/95 27/96/95 138/98/95
f 89/119/96 86/94/96 107/117/96
f 86/94/97 83/120/97 107/117/97
f 114/121/98 113/122/98 122/123/98
f 116/124/99 117/125/99 134/126/99
f 122/123/100 112/127/100 121/128/100
f 126/129/101 111/130/101 110/131/101
f 117/125/102 120/132/102 118/133/102
f 129/134/103 115/135/103 119/136/103
f 123/137/104 114/121/104 122/123/104
f 109/115/105 127/138/105 87/112/105
f 110/116/106 84/111/106 126/139/106
f 118/133/107 127/140/107 109/141/107
f 87/112/108 127/138/108 108/113/108
f 118/133/109 120/132/109 127/140/109
f 128/142/110 124/143/110 126/129/110
f 128/142/111 114/121/111 124/143/111
f 84/111/112 128/114/112 126/139/112
f 125/144/113 129/134/113 119/136/113
f 120/132/114 129/134/114 125/144/114
f 131/145/115 129/134/115 120/132/115
f 123/137/116 121/128/116 130/146/116
f 129/134/117 131/145/117 116/124/117
f 117/125/118 137/147/118 135/148/118
f 89/149/119 111/130/119 136/150/119
f 134/126/120 133/151/120 115/152/120
f 115/152/121 133/151/121 119/153/121
f 128/154/122 85/155/122 132/156/122
f 135/148/123 138/157/123 133/151/123
f 136/150/124 85/155/124 89/149/124
f 112/127/125 132/156/125 136/150/125
f 133/151/126 134/126/126 135/148/126
f 112/127/127 113/122/127 132/156/127
f 138/157/128 137/147/128 88/158/128
f 109/141/129 137/147/129 118/133/129
f 19/3/130 23/2/130 1/8/130
f 2/10/131 24/4/131 20/6/131
f 4/7/132 5/11/132 6/14/132
f 7/159/133 22/12/133 3/9/133
f 8/17/134 22/12/134 7/159/134
f 10/15/135 11/160/135 9/13/135
f 10/15/136 13/20/136 11/160/136
f 21/1/137 17/22/137 13/20/137
f 16/5/138 15/16/138 14/19/138
f 20/6/139 16/5/139 18/21/139
f 30/23/140 52/51/140 32/48/140
f 31/50/141 54/53/141 29/27/141
f 33/24/142 81/31/142 38/30/142
f 45/34/143 79/110/143 44/26/143
f 35/37/144 47/36/144 34/29/144
f 37/35/145 48/38/145 47/36/145
f 37/35/146 36/33/146 46/32/146
f 40/39/147 47/36/147 48/38/147
f 34/29/148 47/36/148 40/39/148
f 45/34/149 60/43/149 39/41/149
f 38/30/150 34/29/150 70/42/150
f 44/26/151 61/63/151 60/43/151
f 49/28/152 51/45/152 44/26/152
f 48/38/153 39/41/153 65/161/153
f 64/40/154 48/38/154 51/45/154
f 51/45/155 48/38/155 65/161/155
f 55/46/156 58/49/156 50/47/156
f 58/49/157 56/52/157 31/50/157
f 56/52/158 53/57/158 54/53/158
f 52/51/159 53/57/159 56/52/159
f 25/54/160 43/25/160 42/55/160
f 49/28/161 43/25/161 25/54/161
f 54/53/162 43/25/162 49/28/162
f 30/23/163 43/25/163 52/51/163
f 54/53/164 49/28/164 29/27/164
f 55/46/165 57/58/165 58/49/165
f 73/60/166 51/45/166 65/161/166
f 67/44/167 33/24/167 68/61/167
f 63/59/168 44/26/168 51/45/168
f 40/39/169 71/162/169 70/42/169
f 65/161/170 39/41/170 72/66/170
f 40/39/171 66/65/171 71/162/171
f 37/35/172 35/37/172 76/68/172
f 75/70/173 36/33/173 37/35/173
f 35/37/174 101/72/174 76/68/174
f 34/29/175 102/163/175 101/72/175
f 45/34/176 36/33/176 77/71/176
f 79/110/177 45/34/177 78/73/177
f 80/83/178 44/26/178 79/110/178
f 94/79/179 50/47/179 31/50/179
f 32/48/180 50/47/180 94/79/180
f 90/80/181 94/79/181 91/81/181
f 30/23/182 32/48/182 95/82/182
f 90/80/183 31/50/183 29/27/183
f 30/23/184 81/31/184 33/24/184
f 88/118/185 96/84/185 83/86/185
f 107/117/186 83/120/186 28/87/186
f 28/85/187 96/84/187 95/82/187
f 90/80/188 107/117/188 28/87/188
f 84/111/189 80/83/189 79/110/189
f 27/96/190 88/118/190 83/86/190
f 86/94/191 27/95/191 83/120/191
f 82/88/192 100/99/192 97/89/192
f 98/91/193 99/102/193 82/92/193
f 26/90/194 97/89/194 27/96/194
f 86/94/195 98/91/195 26/93/195
f 86/94/196 85/164/196 106/103/196
f 27/96/197 97/89/197 105/97/197
f 106/103/198 98/91/198 86/94/198
f 97/89/199 100/99/199 105/97/199
f 106/103/200 99/102/200 98/91/200
f 100/99/201 101/104/201 102/74/201
f 78/73/202 77/106/202 99/102/202
f 101/104/203 100/99/203 82/88/203
f 77/106/204 74/109/204 82/92/204
f 81/31/205 87/112/205 102/74/205
f 87/112/206 108/113/206 104/100/206
f 103/101/207 128/114/207 84/111/207
f 106/103/208 85/164/208 128/114/208
f 107/117/209 90/80/209 80/83/209
f 80/83/210 84/111/210 110/116/210
f 81/31/211 30/23/211 95/82/211
f 89/119/212 85/164/212 86/94/212
f 107/117/213 110/116/213 89/119/213
f 96/84/214 88/118/214 109/115/214
f 115/135/215 116/124/215 134/126/215
f 122/123/216 113/122/216 112/127/216
f 121/128/217 112/127/217 111/130/217
f 117/125/218 131/145/218 120/132/218
f 126/129/219 121/128/219 111/130/219
f 116/124/220 131/145/220 117/125/220
f 129/134/221 116/124/221 115/135/221
f 125/144/222 127/140/222 120/132/222
f 130/146/223 126/129/223 124/143/223
f 108/165/224 127/140/224 125/144/224
f 108/165/225 125/144/225 119/136/225
f 124/143/226 114/121/226 123/137/226
f 121/128/227 126/129/227 130/146/227
f 130/146/228 124/143/228 123/137/228
f 123/137/229 122/123/229 121/128/229
f 117/125/230 118/133/230 137/147/230
f 89/149/231 110/131/231 111/130/231
f 136/150/232 111/130/232 112/127/232
f 117/125/233 135/148/233 134/126/233
f 113/122/234 114/166/234 132/156/234
f 114/166/235 128/154/235 132/156/235
f 119/153/236 133/151/236 138/157/236
f 135/148/237 137/147/237 138/157/237
f 136/150/238 132/156/238 85/155/238
f 108/113/239 119/167/239 138/98/239
f 109/141/240 88/158/240 137/147/240
